<svg id="al93k4as9h1z" version="1.1" xmlns="http://www.w3.org/2000/svg" xmlns:xlink="http://www.w3.org/1999/xlink" width="157.88256" height="60" viewBox="0 0 157.88256 60" style="" ><svg stroke-opacity="1" stroke="#fff" stroke-width="3.5" fill="transparent" x="3.5" y="3.5" ><path d="M1.75,1.75h54h0v0v54v0h0h-54h0v0v-54v0h0z" ></path></svg><svg x="19.26470588235294" y="16.749999999999996" fill="#fff" ><path d="M12.265 21.265L8.030 21.265L8.030 30L0.000 30L0.000-0.000L12.618-0.000L12.618-0.000Q16.059-0.000 18.861 1.213L18.861 1.213L18.861 1.213Q21.662 2.426 23.317 4.875L23.317 4.875L23.317 4.875Q24.971 7.324 24.971 10.809L24.971 10.809L24.971 10.809Q24.971 14.250 23.206 16.610L23.206 16.610L23.206 16.610Q21.442 18.971 18.552 20.118L18.552 20.118L18.552 20.118Q15.662 21.265 12.265 21.265L12.265 21.265M16.677 10.809L16.677 10.809L16.677 10.809Q16.677 8.779 15.508 7.544L15.508 7.544L15.508 7.544Q14.339 6.309 12.353 6.309L12.353 6.309L8.030 6.309L8.030 14.956L12.442 14.956L12.442 14.956Q14.295 14.956 15.486 13.765L15.486 13.765L15.486 13.765Q16.677 12.574 16.677 10.809Z" ></path></svg><svg x="70" y="8.559999999999999" fill="#fff" ><path d="M5.961 10.634L3.902 10.634L3.902 14.879L0.000 14.879L0.000 0.300L6.132 0.300L6.132 0.300Q7.804 0.300 9.166 0.889L9.166 0.889L9.166 0.889Q10.527 1.479 11.331 2.669L11.331 2.669L11.331 2.669Q12.135 3.859 12.135 5.553L12.135 5.553L12.135 5.553Q12.135 7.225 11.278 8.372L11.278 8.372L11.278 8.372Q10.420 9.519 9.016 10.076L9.016 10.076L9.016 10.076Q7.611 10.634 5.961 10.634L5.961 10.634M8.105 5.553L8.105 5.553L8.105 5.553Q8.105 4.566 7.536 3.966L7.536 3.966L7.536 3.966Q6.968 3.366 6.003 3.366L6.003 3.366L3.902 3.366L3.902 7.568L6.046 7.568L6.046 7.568Q6.947 7.568 7.526 6.989L7.526 6.989L7.526 6.989Q8.105 6.410 8.105 5.553ZM21.998 0.300L25.900 0.300L25.900 14.879L21.998 14.879L21.998 9.176L16.895 9.176L16.895 14.879L12.993 14.879L12.993 0.300L16.895 0.171L16.895 6.110L21.998 6.110L21.998 0.300ZM26.972 7.654L26.972 7.654L26.972 7.654Q26.972 5.445 27.937 3.698L27.937 3.698L27.937 3.698Q28.901 1.951 30.617 0.975L30.617 0.975L30.617 0.975Q32.332-0.000 34.497-0.000L34.497-0.000L34.497-0.000Q36.813-0.000 38.517 0.986L38.517 0.986L38.517 0.986Q40.222 1.972 41.133 3.687L41.133 3.687L41.133 3.687Q42.044 5.403 42.044 7.504L42.044 7.504L42.044 7.504Q42.044 9.733 41.090 11.481L41.090 11.481L41.090 11.481Q40.136 13.228 38.421 14.204L38.421 14.204L38.421 14.204Q36.705 15.179 34.497 15.179L34.497 15.179L34.497 15.179Q32.225 15.179 30.520 14.182L30.520 14.182L30.520 14.182Q28.816 13.185 27.894 11.470L27.894 11.470L27.894 11.470Q26.972 9.755 26.972 7.654M34.540 3.259L34.540 3.259L34.540 3.259Q33.554 3.259 32.750 3.805L32.750 3.805L32.750 3.805Q31.946 4.352 31.463 5.349L31.463 5.349L31.463 5.349Q30.981 6.346 30.981 7.632L30.981 7.632L30.981 7.632Q30.981 9.519 31.914 10.720L31.914 10.720L31.914 10.720Q32.846 11.920 34.476 11.920L34.476 11.920L34.476 11.920Q36.041 11.920 37.038 10.773L37.038 10.773L37.038 10.773Q38.035 9.626 38.035 7.504L38.035 7.504L38.035 7.504Q38.035 5.638 37.081 4.448L37.081 4.448L37.081 4.448Q36.127 3.259 34.540 3.259ZM41.615 3.366L41.615 0.300L54.093 0.300L54.458 3.366L49.805 3.366L49.805 14.879L45.903 14.879L45.903 3.366L41.615 3.366ZM54.029 7.654L54.029 7.654L54.029 7.654Q54.029 5.445 54.994 3.698L54.994 3.698L54.994 3.698Q55.959 1.951 57.674 0.975L57.674 0.975L57.674 0.975Q59.389-0.000 61.554-0.000L61.554-0.000L61.554-0.000Q63.870-0.000 65.574 0.986L65.574 0.986L65.574 0.986Q67.279 1.972 68.190 3.687L68.190 3.687L68.190 3.687Q69.101 5.403 69.101 7.504L69.101 7.504L69.101 7.504Q69.101 9.733 68.147 11.481L68.147 11.481L68.147 11.481Q67.193 13.228 65.478 14.204L65.478 14.204L65.478 14.204Q63.763 15.179 61.554 15.179L61.554 15.179L61.554 15.179Q59.282 15.179 57.577 14.182L57.577 14.182L57.577 14.182Q55.873 13.185 54.951 11.470L54.951 11.470L54.951 11.470Q54.029 9.755 54.029 7.654M61.597 3.259L61.597 3.259L61.597 3.259Q60.611 3.259 59.807 3.805L59.807 3.805L59.807 3.805Q59.003 4.352 58.521 5.349L58.521 5.349L58.521 5.349Q58.038 6.346 58.038 7.632L58.038 7.632L58.038 7.632Q58.038 9.519 58.971 10.720L58.971 10.720L58.971 10.720Q59.904 11.920 61.533 11.920L61.533 11.920L61.533 11.920Q63.098 11.920 64.095 10.773L64.095 10.773L64.095 10.773Q65.092 9.626 65.092 7.504L65.092 7.504L65.092 7.504Q65.092 5.638 64.138 4.448L64.138 4.448L64.138 4.448Q63.184 3.259 61.597 3.259Z" ></path></svg><svg x="70" y="30.73952" fill="#fff" ><path d="M9.262 11.835L9.262 9.326L6.754 9.326L7.097 6.475L12.778 6.475L12.778 14.086L12.778 14.086Q11.985 14.579 10.495 14.868L10.495 14.868L10.495 14.868Q9.005 15.158 7.783 15.158L7.783 15.158L7.783 15.158Q5.425 15.158 3.666 14.268L3.666 14.268L3.666 14.268Q1.908 13.378 0.954 11.684L0.954 11.684L0.954 11.684Q0.000 9.991 0.000 7.654L0.000 7.654L0.000 7.654Q0.000 5.338 1.061 3.602L1.061 3.602L1.061 3.602Q2.123 1.865 3.934 0.943L3.934 0.943L3.934 0.943Q5.746 0.021 7.912 0.021L7.912 0.021L7.912 0.021Q9.091 0.021 10.452 0.343L10.452 0.343L10.452 0.343Q11.814 0.664 12.628 1.222L12.628 1.222L11.471 3.859L11.471 3.859Q10.399 3.494 9.584 3.355L9.584 3.355L9.584 3.355Q8.769 3.216 7.954 3.216L7.954 3.216L7.954 3.216Q7.033 3.216 6.121 3.719L6.121 3.719L6.121 3.719Q5.210 4.223 4.621 5.220L4.621 5.220L4.621 5.220Q4.031 6.217 4.031 7.632L4.031 7.632L4.031 7.632Q4.031 9.112 4.588 10.087L4.588 10.087L4.588 10.087Q5.146 11.063 6.025 11.513L6.025 11.513L6.025 11.513Q6.904 11.963 7.890 11.963L7.890 11.963L7.890 11.963Q8.533 11.963 9.262 11.835L9.262 11.835ZM16.445 14.879L12.564 14.879L18.031 0.300L21.933 0.300L27.379 14.707L23.541 15.093L22.491 12.006L17.452 12.006L16.445 14.879M19.918 4.974L18.524 8.940L21.376 8.940L19.918 4.974ZM31.924 0.300L31.924 11.813L38.121 11.813L38.485 14.879L28.022 14.879L28.022 0.300L31.924 0.300ZM43.030 0.300L43.030 11.813L49.226 11.813L49.591 14.879L39.128 14.879L39.128 0.300L43.030 0.300ZM54.136 11.813L60.547 11.813L60.911 14.879L50.234 14.879L50.234 0.300L60.547 0.300L60.911 3.366L54.136 3.366L54.136 6.024L58.617 6.024L58.982 9.090L54.136 9.090L54.136 11.813ZM65.671 14.879L61.769 14.879L61.769 0.300L67.901 0.300L67.901 0.300Q70.516 0.300 72.210 1.543L72.210 1.543L72.210 1.543Q73.904 2.787 73.904 5.274L73.904 5.274L73.904 5.274Q73.904 6.560 73.379 7.536L73.379 7.536L73.379 7.536Q72.853 8.511 71.931 9.133L71.931 9.133L75.147 14.879L70.624 14.879L68.265 10.291L65.671 10.291L65.671 14.879M69.873 5.274L69.873 5.274L69.873 5.274Q69.873 4.331 69.326 3.848L69.326 3.848L69.326 3.848Q68.780 3.366 67.772 3.366L67.772 3.366L65.671 3.366L65.671 7.225L67.815 7.225L67.815 7.225Q68.715 7.225 69.294 6.678L69.294 6.678L69.294 6.678Q69.873 6.131 69.873 5.274ZM87.883 0.300L82.823 9.176L82.823 14.879L78.921 14.879L78.921 9.133L74.290 1.029L78.020-0.000L80.850 5.553L83.873 0.300L87.883 0.300Z" ></path></svg></svg>