<svg id="al93k4as9h1z" version="1.1" xmlns="http://www.w3.org/2000/svg" xmlns:xlink="http://www.w3.org/1999/xlink" width="204.510525818937" height="50" viewBox="0 0 204.510525818937 50" style="" ><svg stroke-opacity="1" stroke="#963d97" stroke-width="3" fill="transparent" x="3" y="3" ><path d="M22.5,1.5h2a21,21 0 0 1 21,21v2a21,21 0 0 1 -21,21h-2a21,21 0 0 1 -21,-21v-2a21,21 0 0 1 21,-21z" ></path></svg><svg x="19.732191780821918" y="13.999999999999998" stroke="#963d97" stroke-width="0" stroke-linecap="round" stroke-linejoin="round" fill="#963d97" ><path d="M7.877 3.596L7.877 3.596L4.794 3.733L4.794 12.397L4.794 12.397Q6.575 12.500 7.877 12.500L7.877 12.500L7.877 12.500Q9.726 12.500 10.959 11.336L10.959 11.336L10.959 11.336Q12.192 10.171 12.192 8.048L12.192 8.048L12.192 8.048Q12.192 5.925 10.959 4.760L10.959 4.760L10.959 4.760Q9.726 3.596 7.877 3.596M7.877-0.000L7.877-0.000L7.877-0.000Q12.089-0.000 14.606 2.175L14.606 2.175L14.606 2.175Q17.123 4.349 17.123 8.048L17.123 8.048L17.123 8.048Q17.123 11.747 14.606 13.921L14.606 13.921L14.606 13.921Q12.089 16.096 7.877 16.096L7.877 16.096L4.794 15.993L4.794 25L-0.000 25L-0.000 0.342L-0.000 0.342Q3.972-0.000 7.877-0.000Z" ></path></svg><svg fill="#963d97" x="61.6822429906542" y="14" ><path d="M5.808 3.157L5.808 3.157 3.535 3.258 3.535 9.646 3.535 9.646Q4.848 9.722 5.808 9.722L5.808 9.722 5.808 9.722Q7.172 9.722 8.081 8.864L8.081 8.864 8.081 8.864Q8.99 8.005 8.99 6.439L8.99 6.439 8.99 6.439Q8.99 4.874 8.081 4.015L8.081 4.015 8.081 4.015Q7.172 3.157 5.808 3.157M5.808 0.505L5.808 0.505 5.808 0.505Q8.914 0.505 10.77 2.109L10.77 2.109 10.77 2.109Q12.626 3.712 12.626 6.439L12.626 6.439 12.626 6.439Q12.626 9.167 10.77 10.77L10.77 10.77 10.77 10.77Q8.914 12.374 5.808 12.374L5.808 12.374 3.535 12.298 3.535 18.939 0 18.939 0 0.758 0 0.758Q2.929 0.505 5.808 0.505ZM16.919 0L16.919 7.702 16.919 7.702Q17.424 6.641 18.396 6.098L18.396 6.098 18.396 6.098Q19.369 5.556 20.455 5.556L20.455 5.556 20.455 5.556Q26.01 5.556 26.01 11.616L26.01 11.616 26.01 18.939 22.475 18.939 22.475 11.616 22.475 11.616Q22.475 8.207 19.949 8.207L19.949 8.207 19.949 8.207Q18.737 8.207 17.828 9.217L17.828 9.217 17.828 9.217Q16.919 10.227 16.919 11.869L16.919 11.869 16.919 18.939 13.384 18.939 13.384 0 16.919 0ZM28.838 7.525L28.838 7.525 28.838 7.525Q30.783 5.556 33.838 5.556L33.838 5.556 33.838 5.556Q36.894 5.556 38.838 7.525L38.838 7.525 38.838 7.525Q40.783 9.495 40.783 12.374L40.783 12.374 40.783 12.374Q40.783 15.253 38.838 17.222L38.838 17.222 38.838 17.222Q36.894 19.192 33.838 19.192L33.838 19.192 33.838 19.192Q30.783 19.192 28.838 17.222L28.838 17.222 28.838 17.222Q26.894 15.253 26.894 12.374L26.894 12.374 26.894 12.374Q26.894 9.495 28.838 7.525M31.452 15.442L31.452 15.442 31.452 15.442Q32.374 16.54 33.838 16.54L33.838 16.54 33.838 16.54Q35.303 16.54 36.225 15.442L36.225 15.442 36.225 15.442Q37.146 14.343 37.146 12.374L37.146 12.374 37.146 12.374Q37.146 10.404 36.225 9.306L36.225 9.306 36.225 9.306Q35.303 8.207 33.838 8.207L33.838 8.207 33.838 8.207Q32.374 8.207 31.452 9.306L31.452 9.306 31.452 9.306Q30.53 10.404 30.53 12.374L30.53 12.374 30.53 12.374Q30.53 14.343 31.452 15.442ZM46.591 5.808L50.126 5.808 50.126 8.46 46.591 8.46 46.591 14.646 46.591 14.646Q46.591 15.758 47.008 16.149L47.008 16.149 47.008 16.149Q47.424 16.54 48.359 16.54L48.359 16.54 50.126 16.414 50.126 19.066 50.126 19.066Q48.838 19.192 47.096 19.192L47.096 19.192 47.096 19.192Q43.056 19.192 43.056 15.657L43.056 15.657 43.056 8.46 40.53 8.46 40.53 5.808 43.056 5.808 43.056 2.525 46.591 2.525 46.591 5.808ZM52.576 7.525L52.576 7.525 52.576 7.525Q54.52 5.556 57.576 5.556L57.576 5.556 57.576 5.556Q60.631 5.556 62.576 7.525L62.576 7.525 62.576 7.525Q64.52 9.495 64.52 12.374L64.52 12.374 64.52 12.374Q64.52 15.253 62.576 17.222L62.576 17.222 62.576 17.222Q60.631 19.192 57.576 19.192L57.576 19.192 57.576 19.192Q54.52 19.192 52.576 17.222L52.576 17.222 52.576 17.222Q50.631 15.253 50.631 12.374L50.631 12.374 50.631 12.374Q50.631 9.495 52.576 7.525M55.189 15.442L55.189 15.442 55.189 15.442Q56.111 16.54 57.576 16.54L57.576 16.54 57.576 16.54Q59.04 16.54 59.962 15.442L59.962 15.442 59.962 15.442Q60.884 14.343 60.884 12.374L60.884 12.374 60.884 12.374Q60.884 10.404 59.962 9.306L59.962 9.306 59.962 9.306Q59.04 8.207 57.576 8.207L57.576 8.207 57.576 8.207Q56.111 8.207 55.189 9.306L55.189 9.306 55.189 9.306Q54.268 10.404 54.268 12.374L54.268 12.374 54.268 12.374Q54.268 14.343 55.189 15.442ZM77.399 11.995L77.399 9.343 84.47 9.343 84.47 18.939 84.47 18.939Q81.389 19.192 78.788 19.192L78.788 19.192 78.788 19.192Q77.374 19.192 76.035 18.889L76.035 18.889 76.035 18.889Q74.697 18.586 73.409 17.879L73.409 17.879 73.409 17.879Q72.121 17.172 71.174 16.124L71.174 16.124 71.174 16.124Q70.227 15.076 69.646 13.46L69.646 13.46 69.646 13.46Q69.066 11.843 69.066 9.848L69.066 9.848 69.066 9.848Q69.066 7.854 69.646 6.237L69.646 6.237 69.646 6.237Q70.227 4.621 71.174 3.573L71.174 3.573 71.174 3.573Q72.121 2.525 73.409 1.818L73.409 1.818 73.409 1.818Q74.697 1.111 76.035 0.808L76.035 0.808 76.035 0.808Q77.374 0.505 78.788 0.505L78.788 0.505 78.788 0.505Q79.949 0.505 81.237 0.631L81.237 0.631 81.237 0.631Q82.525 0.758 83.258 0.884L83.258 0.884 83.965 1.01 83.965 3.662 83.965 3.662Q81.591 3.157 78.788 3.157L78.788 3.157 78.788 3.157Q76.136 3.157 74.419 4.924L74.419 4.924 74.419 4.924Q72.702 6.692 72.702 9.848L72.702 9.848 72.702 9.848Q72.702 13.005 74.419 14.773L74.419 14.773 74.419 14.773Q76.136 16.54 78.788 16.54L78.788 16.54 80.934 16.414 80.934 11.995 77.399 11.995ZM90.657 5.556L90.657 5.556 90.657 5.556Q93.586 5.556 95.025 7.159L95.025 7.159 95.025 7.159Q96.465 8.763 96.465 11.364L96.465 11.364 96.465 18.939 93.182 18.939 93.182 18.939Q92.929 18.056 92.929 17.045L92.929 17.045 92.929 17.045Q91.995 19.192 89.52 19.192L89.52 19.192 89.52 19.192Q87.576 19.192 86.402 18.093L86.402 18.093 86.402 18.093Q85.227 16.995 85.227 14.773L85.227 14.773 85.227 14.773Q85.227 12.753 86.742 11.49L86.742 11.49 86.742 11.49Q88.258 10.227 90.404 10.227L90.404 10.227 90.404 10.227Q91.035 10.227 91.667 10.354L91.667 10.354 91.667 10.354Q92.298 10.48 92.601 10.606L92.601 10.606 92.929 10.732 92.929 10.732Q92.929 9.596 92.311 8.902L92.311 8.902 92.311 8.902Q91.692 8.207 90.404 8.207L90.404 8.207 90.404 8.207Q89.343 8.207 88.295 8.396L88.295 8.396 88.295 8.396Q87.247 8.586 86.742 8.788L86.742 8.788 86.237 8.965 86.237 6.313 86.237 6.313Q88.409 5.556 90.657 5.556M92.929 13.384L92.929 13.384 92.929 13.056 92.929 13.056Q91.995 12.879 90.909 12.879L90.909 12.879 90.909 12.879Q90.025 12.879 89.444 13.346L89.444 13.346 89.444 13.346Q88.864 13.813 88.864 14.773L88.864 14.773 88.864 14.773Q88.864 15.606 89.343 16.073L89.343 16.073 89.343 16.073Q89.823 16.54 90.53 16.54L90.53 16.54 90.53 16.54Q91.566 16.54 92.247 15.72L92.247 15.72 92.247 15.72Q92.929 14.899 92.929 13.384ZM101.641 0L101.641 18.939 98.106 18.939 98.106 0 101.641 0ZM106.944 0L106.944 18.939 103.409 18.939 103.409 0 106.944 0ZM120.253 13.258L111.364 13.258 111.364 13.258Q111.49 14.975 112.399 15.758L112.399 15.758 112.399 15.758Q113.308 16.54 115.025 16.54L115.025 16.54 115.025 16.54Q115.833 16.54 116.843 16.376L116.843 16.376 116.843 16.376Q117.854 16.212 118.46 16.061L118.46 16.061 119.066 15.909 119.066 18.561 119.066 18.561Q117.449 19.192 114.773 19.192L114.773 19.192 114.773 19.192Q113.409 19.192 112.222 18.801L112.222 18.801 112.222 18.801Q111.035 18.409 110.063 17.614L110.063 17.614 110.063 17.614Q109.091 16.818 108.523 15.467L108.523 15.467 108.523 15.467Q107.955 14.116 107.955 12.374L107.955 12.374 107.955 12.374Q107.955 9.369 109.811 7.462L109.811 7.462 109.811 7.462Q111.667 5.556 114.268 5.556L114.268 5.556 114.268 5.556Q117.045 5.556 118.687 7.298L118.687 7.298 118.687 7.298Q120.328 9.04 120.328 11.869L120.328 11.869 120.253 13.258M114.268 8.207L114.268 8.207 114.268 8.207Q112.98 8.207 112.336 8.914L112.336 8.914 112.336 8.914Q111.692 9.621 111.465 10.859L111.465 10.859 116.995 10.859 116.995 10.859Q116.995 9.571 116.263 8.889L116.263 8.889 116.263 8.889Q115.53 8.207 114.268 8.207ZM125.253 8.333L125.253 8.333 125.253 8.333Q126.086 5.556 129.798 5.556L129.798 5.556 129.798 8.586 129.798 8.586Q128.283 8.586 127.386 8.838L127.386 8.838 127.386 8.838Q126.49 9.091 126.01 9.747L126.01 9.747 126.01 9.747Q125.53 10.404 125.391 11.263L125.391 11.263 125.391 11.263Q125.253 12.121 125.253 13.636L125.253 13.636 125.253 18.939 121.717 18.939 121.717 5.808 125 5.808 125 5.808Q125.253 6.54 125.253 8.333ZM139.141 5.808L142.828 5.808 137.753 18.965 137.753 18.965Q136.995 20.96 136.313 22.121L136.313 22.121 136.313 22.121Q135.631 23.283 134.684 23.939L134.684 23.939 134.684 23.939Q133.737 24.596 132.677 24.798L132.677 24.798 132.677 24.798Q131.616 25 129.874 25L129.874 25 129.874 21.97 129.874 21.97Q131.818 21.97 132.576 21.439L132.576 21.439 132.576 21.439Q133.333 20.909 134.091 18.939L134.091 18.939 129.04 5.808 132.727 5.808 135.227 12.879 135.227 12.879Q135.859 14.874 135.909 15.429L135.909 15.429 135.934 15.429 135.934 15.429Q135.96 14.975 136.641 12.879L136.641 12.879 139.141 5.808Z" ></path></svg></svg>